<svg xmlns="http://www.w3.org/2000/svg" viewBox="0 0 512 512" role="img" aria-label="Camisol logo">
  <defs>
    <linearGradient id="bg" x1="15%" y1="10%" x2="85%" y2="90%">
      <stop offset="0%" stop-color="#ff7ab3"/>
      <stop offset="50%" stop-color="#ff4f9c"/>
      <stop offset="100%" stop-color="#ff9ee0"/>
    </linearGradient>
    <linearGradient id="glow" x1="30%" y1="20%" x2="90%" y2="80%">
      <stop offset="0%" stop-color="#ffffff" stop-opacity="0.55"/>
      <stop offset="100%" stop-color="#ffffff" stop-opacity="0"/>
    </linearGradient>
  </defs>
  <rect x="24" y="24" width="464" height="464" rx="112" fill="url(#bg)"/>
  <circle cx="380" cy="154" r="78" fill="#ffd1ec" opacity="0.35"/>
  <path d="M140 210c12-54 65-96 140-96 79 0 132 45 132 112 0 74-62 125-152 125-43 0-79-11-109-33v40c0 25-19 46-48 46-28 0-48-18-48-46V210h85z" fill="#fff" opacity="0.18"/>
  <path d="M139 214c11-50 61-88 135-88 73 0 122 41 122 103 0 68-58 115-145 115-41 0-75-10-103-30v37c0 24-17 43-44 43s-44-17-44-43V214h79z" fill="#fff" opacity="0.35"/>
  <path d="M155 228c9-43 56-74 118-74 64 0 106 37 106 94 0 60-52 101-126 101-36 0-66-9-91-27v33c0 22-16 40-41 40-24 0-41-16-41-40V228h75z" fill="#fff"/>
  <path d="M214 172c27-30 78-32 103 12-35-15-64-12-103-12z" fill="#ffffff" opacity="0.6"/>
  <path d="M193 322c41 13 104 16 145-15-11 28-62 50-145 15z" fill="#ffcee7" opacity="0.8"/>
  <path d="M232 244c0-24 17-41 42-41s42 17 42 41-17 42-42 42-42-17-42-42zm28 0c0 7 5 14 14 14 8 0 14-7 14-14 0-8-6-14-14-14-9 0-14 6-14 14z" fill="#ff2f8c"/>
  <path d="M213 420c-8-2-12-11-9-18l13-32c5-13 18-21 32-21h115c10 0 17 10 13 19l-12 30c-6 16-21 26-38 26H213z" fill="url(#glow)"/>
</svg>
